<svg width="32" height="33" viewBox="0 0 32 33" fill="none" xmlns="http://www.w3.org/2000/svg">
<rect x="0.5" y="1" width="31" height="31" rx="15.5" stroke="#EEEFF2"/>
<path d="M21.9997 12.0599C21.9647 12.22 21.9399 12.3833 21.8929 12.54C21.4113 14.1475 19.3778 14.6754 18.1705 13.5048C18.0839 13.4209 18.0303 13.4249 17.9364 13.4831C16.7777 14.2014 15.6165 14.9157 14.4559 15.6311C14.4257 15.6496 14.3968 15.67 14.3607 15.6938C14.5627 16.2338 14.5624 16.774 14.3596 17.3166C14.8491 17.6184 15.3318 17.9161 15.8147 18.2136C16.5301 18.6545 17.2466 19.0939 17.9602 19.5378C18.0376 19.5858 18.0802 19.5874 18.1514 19.5207C18.8058 18.9056 19.5757 18.7055 20.4314 18.9834C21.2862 19.261 21.788 19.8753 21.9647 20.7521C21.9779 20.817 21.9884 20.8825 22 20.9479V21.2692C21.9911 21.3073 21.9795 21.3452 21.9738 21.3838C21.8482 22.2435 21.3809 22.8467 20.5835 23.1906C20.402 23.2689 20.2011 23.303 20.0091 23.3571H19.4708C19.2532 23.293 19.0256 23.252 18.8201 23.1613C17.7582 22.693 17.2372 21.5267 17.5907 20.4265C17.6228 20.327 17.6058 20.2808 17.5163 20.2261C16.3573 19.5164 15.201 18.8023 14.0436 18.0894C14.0061 18.0663 13.9673 18.0454 13.9236 18.0202C13.6901 18.2581 13.4285 18.4485 13.1227 18.5757C11.7657 19.1392 10.2359 18.2771 10.024 16.8282C9.81769 15.4173 10.9705 14.1665 12.397 14.2612C12.9533 14.298 13.4363 14.5142 13.8351 14.9044C13.898 14.9659 13.9371 14.9868 14.0239 14.9329C15.1899 14.2089 16.3586 13.4895 17.5293 12.7725C17.6118 12.7218 17.6209 12.68 17.5929 12.5918C17.1528 11.2157 18.0567 9.83006 19.5037 9.65732C20.6905 9.51543 21.8495 10.433 21.9728 11.6111C21.9773 11.654 21.9906 11.6961 21.9997 11.7385V12.0599ZM10.8284 16.502C10.8276 17.289 11.4616 17.9236 12.2498 17.9247C13.0367 17.9258 13.6812 17.2919 13.686 16.5119C13.6911 15.7271 13.0445 15.0823 12.2527 15.0828C11.4629 15.0833 10.8289 15.715 10.8281 16.502H10.8284ZM18.3088 11.8893C18.3067 12.6733 18.9431 13.3146 19.727 13.3184C20.5142 13.3224 21.1667 12.6757 21.1662 11.8925C21.1654 11.1103 20.5258 10.4762 19.7367 10.4752C18.9439 10.4744 18.311 11.1009 18.3088 11.889V11.8893ZM19.7251 22.5323C20.5155 22.5361 21.1597 21.9074 21.1662 21.1263C21.1727 20.3417 20.5266 19.6915 19.7386 19.6891C18.9542 19.6867 18.3115 20.324 18.3088 21.1067C18.3064 21.8961 18.9345 22.5286 19.7251 22.5323Z" fill="#A1A1A1"/>
</svg>
