<svg width="16" height="13" viewBox="0 0 16 13" fill="none" xmlns="http://www.w3.org/2000/svg">
<path d="M8.00626 0.982114C10.3563 0.982114 12.71 0.982114 15.06 0.982114C15.3265 0.982114 15.5744 1.01912 15.7705 1.22267C15.9556 1.41141 16 1.64826 16 1.90361C16 4.27213 16 6.64435 16 9.01286C16 9.70861 16 10.4044 16 11.1001C16 11.7219 15.6928 12.0253 15.0674 12.0253C10.4007 12.0253 5.73767 12.0253 1.07095 12.0253C1.01544 12.0253 0.959926 12.0253 0.904414 12.0253C0.315986 12.0179 0.00511818 11.707 0.00511818 11.1186C0.00511818 8.53916 0.00511818 5.9597 0.00511818 3.38024C0.00511818 2.89913 0.0199215 2.41803 0.00141743 1.94062C-0.0244882 1.3596 0.304883 0.967311 0.974729 0.974712C3.31734 0.989516 5.66365 0.982114 8.00626 0.982114ZM15.3079 2.12196C15.208 2.21448 15.1303 2.2811 15.0563 2.35141C13.0209 4.26843 10.9891 6.18175 8.95367 8.09876C8.33563 8.67979 7.67319 8.67979 7.05885 8.09876C4.9901 6.15954 2.92505 4.21292 0.856303 2.26999C0.808193 2.22558 0.760083 2.18488 0.70087 2.13677C0.70087 5.02709 0.70087 7.89522 0.70087 10.7929C0.756382 10.7374 0.789689 10.7004 0.822996 10.6634C1.65938 9.73452 2.49576 8.80562 3.33214 7.88042C3.68002 7.49553 4.02419 7.11065 4.37207 6.72946C4.5016 6.58513 4.67554 6.55553 4.81987 6.64435C4.9679 6.73317 5.00861 6.8701 4.9679 7.02553C4.94569 7.10325 4.88648 7.17726 4.83097 7.24018C3.65781 8.54286 2.48096 9.84554 1.3078 11.1482C1.25969 11.2 1.21528 11.2556 1.15607 11.3259C5.73396 11.3259 10.2786 11.3259 14.8602 11.3259C14.7824 11.2407 14.7269 11.1741 14.6714 11.1149C13.502 9.81594 12.3288 8.52065 11.1593 7.22167C10.9891 7.03293 10.9817 6.82198 11.1371 6.68505C11.2926 6.54812 11.4961 6.57773 11.6701 6.77017C12.6064 7.8064 13.539 8.84633 14.4753 9.88255C14.7454 10.1823 15.0156 10.4784 15.3117 10.8041C15.3079 7.89152 15.3079 5.02709 15.3079 2.12196ZM1.26339 1.66676C1.25229 1.67787 1.24489 1.69267 1.23379 1.70377C1.2819 1.74078 1.33001 1.77409 1.37072 1.81109C2.6808 3.04346 3.98719 4.27583 5.29727 5.5045C6.06334 6.22616 6.8294 6.94781 7.59917 7.66577C7.85083 7.90262 8.15059 7.89522 8.40965 7.66947C8.46516 7.62136 8.52067 7.56955 8.57248 7.51774C10.5894 5.61922 12.6064 3.72071 14.6233 1.8222C14.6714 1.77779 14.7306 1.74818 14.7861 1.71487C14.7713 1.69637 14.7602 1.68157 14.7454 1.66306C10.2489 1.66676 5.75617 1.66676 1.26339 1.66676Z" fill="white"/>
</svg>
