<svg width="48" height="48" viewBox="0 0 48 48" fill="none" xmlns="http://www.w3.org/2000/svg">
<path d="M45.6 5.59985H2.4C1.07456 5.59985 0 6.67432 0 7.99985V39.9998C0 41.3253 1.07447 42.3998 2.4 42.3998H45.6C46.9254 42.3998 48 41.3254 48 39.9998V7.99985C48 6.67442 46.9255 5.59985 45.6 5.59985ZM46.4 39.9999C46.4 40.4418 46.0418 40.7999 45.6 40.7999H2.4C1.95816 40.7999 1.60003 40.4418 1.60003 39.9999V7.99985C1.60003 7.55801 1.95816 7.19988 2.4 7.19988H45.6C46.0418 7.19988 46.4 7.55801 46.4 7.99985V39.9999Z" fill="#6D8434"/>
<path d="M44.0696 8.80289C43.8582 8.78442 43.6481 8.85071 43.4856 8.98721L25.0296 24.4911C24.4343 24.9915 23.5656 24.9915 22.9703 24.4911L4.51443 8.98711C4.29553 8.80336 3.99515 8.7503 3.72656 8.84799C3.45796 8.94567 3.26184 9.1793 3.21215 9.46083C3.16246 9.74236 3.26671 10.029 3.48562 10.2127L21.9416 25.7159C23.1311 26.7174 24.8689 26.7174 26.0585 25.7159L44.5144 10.2128C44.6769 10.0764 44.7786 9.88102 44.797 9.66961C44.8155 9.45821 44.7492 9.24811 44.6127 9.08564C44.4764 8.92299 44.281 8.82136 44.0696 8.80289Z" fill="#6D8434"/>
<path d="M15.3866 25.6057C15.1034 25.5425 14.8083 25.6375 14.6152 25.8541L3.41512 37.8541C3.21243 38.0616 3.13799 38.3628 3.22068 38.6408C3.30337 38.919 3.53015 39.1305 3.81328 39.1937C4.09649 39.2569 4.39162 39.1618 4.58474 38.9452L15.7848 26.9452C15.9875 26.7377 16.0619 26.4366 15.9792 26.1585C15.8965 25.8804 15.6698 25.6688 15.3866 25.6057Z" fill="#6D8434"/>
<path d="M33.3846 25.8541C33.1915 25.6375 32.8963 25.5425 32.6131 25.6057C32.3299 25.6688 32.1032 25.8804 32.0205 26.1585C31.9378 26.4367 32.0122 26.7377 32.2149 26.9452L43.415 38.9452C43.7187 39.2563 44.2152 39.2679 44.5331 38.9713C44.851 38.6747 44.8739 38.1786 44.5846 37.854L33.3846 25.8541Z" fill="#6D8434"/>
</svg>
