<svg width="15" height="15" viewBox="0 0 15 15" fill="none" xmlns="http://www.w3.org/2000/svg">
<path d="M11.561 14.999C10.4542 14.9825 9.5457 14.6686 8.67021 14.2513C7.17113 13.5366 5.85789 12.5534 4.64789 11.4215C3.25205 10.1202 2.02966 8.67431 1.09635 6.99708C0.621437 6.14607 0.237375 5.25788 0.0721874 4.2912C-0.0269252 3.71698 -0.0517034 3.13449 0.179559 2.58505C0.282802 2.34132 0.427341 2.10584 0.609047 1.91581C1.117 1.37464 1.65386 0.858246 2.18246 0.333594C2.62847 -0.108435 3.24379 -0.112565 3.6898 0.329464C4.42488 1.05654 5.15171 1.78775 5.87854 2.51895C6.31215 2.95685 6.31215 3.56826 5.88267 4.01442C5.67205 4.23337 5.46557 4.46058 5.2343 4.65887C4.89567 4.94392 4.84611 5.29506 4.93697 5.69578C5.06086 6.23282 5.30451 6.71203 5.61423 7.16233C6.36584 8.25707 7.29915 9.15352 8.48437 9.76493C8.83953 9.9467 9.2112 10.0872 9.61591 10.1037C9.87195 10.1161 10.0867 10.0417 10.2684 9.84755C10.4955 9.59968 10.7392 9.36834 10.9787 9.13287C11.4247 8.69084 12.04 8.68671 12.4819 9.1246C13.2129 9.85168 13.9438 10.5829 14.6706 11.3141C15.1125 11.7561 15.1084 12.3758 14.6665 12.822C14.1544 13.3383 13.6424 13.8547 13.122 14.3629C12.6554 14.8173 12.0896 15.0156 11.561 14.999ZM4.76352 4.51428C3.73522 3.48563 2.71106 2.46112 1.68277 1.43247C1.43912 1.67621 1.18307 1.93647 0.922904 2.19673C0.720549 2.39915 0.584269 2.63876 0.514064 2.91554C0.386044 3.41127 0.431471 3.91114 0.534713 4.40274C0.724679 5.29919 1.09222 6.12955 1.55475 6.91446C3.17359 9.66991 5.36232 11.8594 8.12509 13.4664C9.04601 14.0034 10.0206 14.4248 11.0985 14.5446C11.5982 14.5983 12.1102 14.5942 12.5273 14.2844C12.9114 13.9993 13.2418 13.6358 13.5804 13.3177C12.5356 12.2725 11.5156 11.2521 10.4914 10.2276C10.1156 10.5581 9.72741 10.5829 9.33096 10.5003C9.0171 10.43 8.69912 10.3433 8.40591 10.207C7.2785 9.68231 6.37823 8.86847 5.61011 7.90593C5.14758 7.32757 4.75526 6.69964 4.55703 5.9767C4.42075 5.44791 4.37533 4.93152 4.76352 4.51428ZM5.12693 4.1714C5.2756 4.01855 5.43253 3.86157 5.5812 3.70458C5.82898 3.44019 5.82898 3.09318 5.57294 2.83292C5.38297 2.63876 5.18888 2.44459 4.99478 2.25043C4.45379 1.70926 3.91693 1.16808 3.37594 0.631035C3.13642 0.39143 2.80191 0.358381 2.56652 0.564937C2.37656 0.730182 2.2155 0.924344 2.05031 1.09785C3.06621 2.10997 4.08625 3.13036 5.12693 4.1714ZM13.9232 12.9707C14.0636 12.8261 14.204 12.6774 14.3485 12.5286C14.6376 12.2312 14.6376 11.8925 14.3485 11.5991C14.0553 11.3017 13.758 11.0084 13.4607 10.711C13.0353 10.2854 12.6099 9.85581 12.1804 9.43031C11.9368 9.1907 11.5982 9.15765 11.3545 9.36834C11.1687 9.52945 11.0076 9.71948 10.8466 9.88886C11.8625 10.9092 12.8825 11.9296 13.9232 12.9707Z" fill="white"/>
<path d="M7.71191 1.07294C7.71191 0.928347 7.71191 0.796151 7.71191 0.668086C11.3254 0.573071 14.4351 3.76229 14.3277 7.29026C14.1997 7.29026 14.0758 7.29026 13.9271 7.29026C13.8941 5.59237 13.3035 4.11344 12.0976 2.90715C10.8959 1.70086 9.42574 1.11012 7.71191 1.07294Z" fill="white"/>
<path d="M12.5519 7.28615C12.4198 7.28615 12.2876 7.28615 12.1472 7.28615C12.1224 6.06334 11.6971 5.00991 10.834 4.15063C9.97499 3.29549 8.92604 2.87412 7.71191 2.8452C7.71191 2.70474 7.71191 2.57255 7.71191 2.44035C10.3054 2.3536 12.6428 4.66702 12.5519 7.28615Z" fill="white"/>
<path d="M10.7844 7.47613C10.6523 7.47613 10.5201 7.47613 10.3756 7.47613C10.3508 6.74905 10.103 6.11699 9.59092 5.6006C9.07471 5.08421 8.447 4.82808 7.71191 4.81156C7.71191 4.66697 7.71191 4.53477 7.71191 4.40258C9.24816 4.32409 10.8381 5.71627 10.7844 7.47613Z" fill="white"/>
</svg>
