<svg width="100" height="16" viewBox="0 0 100 16" fill="none" xmlns="http://www.w3.org/2000/svg">
<path fill-rule="evenodd" clip-rule="evenodd" d="M100 0H0V16H100V0ZM9.82963 4.90126L8.2963 1.56793C8.02963 1.0346 7.36296 1.0346 7.02963 1.50126L5.4963 4.8346C5.42963 5.0346 5.22963 5.2346 5.02963 5.2346L1.56296 5.76793C1.02963 5.83459 0.829629 6.50126 1.16296 6.90126L3.6963 9.50126C3.82963 9.6346 3.96296 9.90126 3.8963 10.1013L3.2963 13.7013C3.16296 14.3013 3.76296 14.7013 4.22963 14.4346L7.36296 12.7013C7.56296 12.5679 7.76296 12.5679 7.96296 12.7013L11.0963 14.4346C11.563 14.7013 12.0963 14.2346 12.0296 13.7013L11.4296 10.1013C11.4296 9.90126 11.4963 9.6346 11.6296 9.50126L14.163 6.90126C14.563 6.50126 14.363 5.8346 13.763 5.8346L10.2963 5.30126C10.0963 5.2346 9.8963 5.10126 9.82963 4.90126ZM29.2963 1.56793L30.8296 4.90126C30.8963 5.10126 31.0963 5.2346 31.2963 5.30126L34.763 5.8346C35.363 5.8346 35.563 6.50126 35.163 6.90126L32.6296 9.50126C32.4963 9.6346 32.4296 9.90126 32.4296 10.1013L33.0296 13.7013C33.0963 14.2346 32.563 14.7013 32.0963 14.4346L28.963 12.7013C28.763 12.5679 28.563 12.5679 28.363 12.7013L25.2296 14.4346C24.763 14.7013 24.163 14.3013 24.2963 13.7013L24.8963 10.1013C24.963 9.90126 24.8296 9.6346 24.6963 9.50126L22.163 6.90126C21.8296 6.50126 22.0296 5.83459 22.563 5.76793L26.0296 5.2346C26.2296 5.2346 26.4296 5.0346 26.4963 4.8346L28.0296 1.50126C28.363 1.0346 29.0296 1.0346 29.2963 1.56793ZM51.8296 4.90126L50.2963 1.56793C50.0296 1.0346 49.363 1.0346 49.0296 1.50126L47.4963 4.8346C47.4296 5.0346 47.2296 5.2346 47.0296 5.2346L43.563 5.76793C43.0296 5.83459 42.8296 6.50126 43.163 6.90126L45.6963 9.50126C45.8296 9.6346 45.963 9.90126 45.8963 10.1013L45.2963 13.7013C45.163 14.3013 45.763 14.7013 46.2296 14.4346L49.363 12.7013C49.563 12.5679 49.763 12.5679 49.963 12.7013L53.0963 14.4346C53.563 14.7013 54.0963 14.2346 54.0296 13.7013L53.4296 10.1013C53.4296 9.90126 53.4963 9.6346 53.6296 9.50126L56.163 6.90126C56.563 6.50126 56.363 5.8346 55.763 5.8346L52.2963 5.30126C52.0963 5.2346 51.8963 5.10126 51.8296 4.90126ZM71.2963 1.56793L72.8296 4.90126C72.8963 5.10126 73.0963 5.2346 73.2963 5.30126L76.763 5.8346C77.363 5.8346 77.563 6.50126 77.163 6.90126L74.6296 9.50126C74.4963 9.6346 74.4296 9.90126 74.4296 10.1013L75.0296 13.7013C75.0963 14.2346 74.563 14.7013 74.0963 14.4346L70.963 12.7013C70.763 12.5679 70.563 12.5679 70.363 12.7013L67.2296 14.4346C66.763 14.7013 66.163 14.3013 66.2963 13.7013L66.8963 10.1013C66.963 9.90126 66.8296 9.6346 66.6963 9.50126L64.163 6.90126C63.8296 6.50126 64.0296 5.83459 64.563 5.76793L68.0296 5.2346C68.2296 5.2346 68.4296 5.0346 68.4963 4.8346L70.0296 1.50126C70.363 1.0346 71.0296 1.0346 71.2963 1.56793ZM94.1333 5.06655L92.6 1.73321C92.3333 1.19988 91.6667 1.19988 91.3333 1.66655L89.8 4.99988C89.7333 5.19988 89.5333 5.39988 89.3333 5.39988L85.8667 5.93321C85.3333 5.99988 85.1333 6.66655 85.4667 7.06655L88 9.66655C88.1333 9.79988 88.2667 10.0665 88.2 10.2665L87.6 13.8665C87.4667 14.4665 88.0667 14.8665 88.5333 14.5999L91.6667 12.8665C91.8667 12.7332 92.0667 12.7332 92.2667 12.8665L95.4 14.5999C95.8667 14.8665 96.4 14.3999 96.3333 13.8665L95.7333 10.2665C95.7333 10.0665 95.8 9.79988 95.9333 9.66655L98.4667 7.06655C98.8667 6.66655 98.6667 5.99988 98.0667 5.99988L94.6 5.46655C94.4 5.39988 94.2 5.26655 94.1333 5.06655Z" fill="#F2F0EA"/>
<path d="M10.9364 10.1835L11.5343 13.7705C11.5418 13.8525 11.5043 13.9335 11.4463 13.981C11.4189 14.0034 11.3966 14.0101 11.3853 14.0115C11.378 14.0124 11.3664 14.0131 11.3444 14.0005L11.3444 14.0004L11.3383 13.9971L8.22083 12.2725C8.05975 12.1694 7.87164 12.1013 7.66296 12.1013C7.45428 12.1013 7.26617 12.1694 7.1051 12.2725L3.9876 13.9971L3.98758 13.997L3.98156 14.0005C3.93349 14.0279 3.88009 14.0241 3.83516 13.9908C3.81335 13.9747 3.797 13.9534 3.78756 13.9286C3.77886 13.9058 3.77144 13.868 3.78439 13.8097L3.78729 13.7967L3.78949 13.7835L4.3845 10.2134C4.44847 9.97682 4.39749 9.75153 4.33797 9.59677C4.27263 9.42688 4.16938 9.26807 4.0525 9.15037L1.53894 6.57066C1.50034 6.51695 1.48809 6.44037 1.5123 6.36771C1.53571 6.29748 1.57692 6.27008 1.62498 6.26407L1.632 6.26319L1.63899 6.26212L5.07665 5.73324C5.31917 5.71928 5.51614 5.59942 5.64745 5.48124C5.78315 5.35911 5.89552 5.19839 5.96011 5.02275L7.46004 1.76202C7.5291 1.68282 7.61049 1.65722 7.67073 1.6593C7.72743 1.66125 7.79472 1.68701 7.84613 1.78575L9.36594 5.08969C9.5134 5.4883 9.88203 5.69022 10.1382 5.7756L10.1784 5.78901L10.2203 5.79545L13.6869 6.32878L13.7247 6.3346H13.763C13.8175 6.3346 13.8396 6.34863 13.8455 6.35277C13.8528 6.35795 13.8602 6.36622 13.8655 6.38149C13.8762 6.41244 13.8777 6.47947 13.8094 6.54771L13.8094 6.54768L13.8048 6.55233L11.2733 9.15052C11.1281 9.29701 11.0472 9.48158 11.0017 9.62922C10.9539 9.78483 10.9296 9.95104 10.9296 10.1013V10.1426L10.9364 10.1835Z" stroke="#6D8434"/>
<path d="M31.9364 10.1835L32.5343 13.7705C32.5418 13.8525 32.5043 13.9335 32.4463 13.981C32.4189 14.0034 32.3966 14.0101 32.3853 14.0115C32.378 14.0124 32.3664 14.0131 32.3444 14.0005L32.3444 14.0004L32.3383 13.9971L29.2208 12.2725C29.0598 12.1694 28.8716 12.1013 28.663 12.1013C28.4543 12.1013 28.2662 12.1694 28.1051 12.2725L24.9876 13.9971L24.9876 13.997L24.9816 14.0005C24.9335 14.0279 24.8801 14.0241 24.8352 13.9908C24.8133 13.9747 24.797 13.9534 24.7876 13.9286C24.7789 13.9058 24.7714 13.868 24.7844 13.8097L24.7873 13.7967L24.7895 13.7835L25.3845 10.2134C25.4485 9.97682 25.3975 9.75153 25.338 9.59677C25.2726 9.42688 25.1694 9.26807 25.0525 9.15037L22.5389 6.57066C22.5003 6.51695 22.4881 6.44037 22.5123 6.36771C22.5357 6.29748 22.5769 6.27008 22.625 6.26407L22.632 6.26319L22.639 6.26212L26.0767 5.73324C26.3192 5.71928 26.5161 5.59942 26.6474 5.48124C26.7832 5.35911 26.8955 5.19839 26.9601 5.02275L28.46 1.76202C28.5291 1.68282 28.6105 1.65722 28.6707 1.6593C28.7274 1.66125 28.7947 1.68701 28.8461 1.78575L30.3659 5.08969C30.5134 5.4883 30.882 5.69022 31.1382 5.7756L31.1784 5.78901L31.2203 5.79545L34.6869 6.32878L34.7247 6.3346H34.763C34.8175 6.3346 34.8396 6.34863 34.8455 6.35277C34.8528 6.35795 34.8602 6.36622 34.8655 6.38149C34.8762 6.41244 34.8777 6.47947 34.8094 6.54771L34.8094 6.54768L34.8048 6.55233L32.2733 9.15052C32.1281 9.29701 32.0472 9.48158 32.0017 9.62922C31.9539 9.78483 31.9296 9.95104 31.9296 10.1013V10.1426L31.9364 10.1835Z" stroke="#6D8434"/>
<path d="M52.9364 10.1835L53.5343 13.7705C53.5418 13.8525 53.5043 13.9335 53.4463 13.981C53.4189 14.0034 53.3966 14.0101 53.3853 14.0115C53.378 14.0124 53.3664 14.0131 53.3444 14.0005L53.3444 14.0004L53.3383 13.9971L50.2208 12.2725C50.0598 12.1694 49.8716 12.1013 49.663 12.1013C49.4543 12.1013 49.2662 12.1694 49.1051 12.2725L45.9876 13.9971L45.9876 13.997L45.9816 14.0005C45.9335 14.0279 45.8801 14.0241 45.8352 13.9908C45.8133 13.9747 45.797 13.9534 45.7876 13.9286C45.7789 13.9058 45.7714 13.868 45.7844 13.8097L45.7873 13.7967L45.7895 13.7835L46.3845 10.2134C46.4485 9.97682 46.3975 9.75153 46.338 9.59677C46.2726 9.42688 46.1694 9.26807 46.0525 9.15037L43.5389 6.57066C43.5003 6.51695 43.4881 6.44037 43.5123 6.36771C43.5357 6.29748 43.5769 6.27008 43.625 6.26407L43.632 6.26319L43.639 6.26212L47.0767 5.73324C47.3192 5.71928 47.5161 5.59942 47.6474 5.48124C47.7832 5.35911 47.8955 5.19839 47.9601 5.02275L49.46 1.76202C49.5291 1.68282 49.6105 1.65722 49.6707 1.6593C49.7274 1.66125 49.7947 1.68701 49.8461 1.78575L51.3659 5.08969C51.5134 5.4883 51.882 5.69022 52.1382 5.7756L52.1784 5.78901L52.2203 5.79545L55.6869 6.32878L55.7247 6.3346H55.763C55.8175 6.3346 55.8396 6.34863 55.8455 6.35277C55.8528 6.35795 55.8602 6.36622 55.8655 6.38149C55.8762 6.41244 55.8777 6.47947 55.8094 6.54771L55.8094 6.54768L55.8048 6.55233L53.2733 9.15052C53.1281 9.29701 53.0472 9.48158 53.0017 9.62922C52.9539 9.78483 52.9296 9.95104 52.9296 10.1013V10.1426L52.9364 10.1835Z" stroke="#6D8434"/>
<path d="M73.9364 10.1835L74.5343 13.7705C74.5418 13.8525 74.5043 13.9335 74.4463 13.981C74.4189 14.0034 74.3966 14.0101 74.3853 14.0115C74.378 14.0124 74.3664 14.0131 74.3444 14.0005L74.3444 14.0004L74.3383 13.9971L71.2208 12.2725C71.0598 12.1694 70.8716 12.1013 70.663 12.1013C70.4543 12.1013 70.2662 12.1694 70.1051 12.2725L66.9876 13.9971L66.9876 13.997L66.9816 14.0005C66.9335 14.0279 66.8801 14.0241 66.8352 13.9908C66.8133 13.9747 66.797 13.9534 66.7876 13.9286C66.7789 13.9058 66.7714 13.868 66.7844 13.8097L66.7873 13.7967L66.7895 13.7835L67.3845 10.2134C67.4485 9.97682 67.3975 9.75153 67.338 9.59677C67.2726 9.42688 67.1694 9.26807 67.0525 9.15037L64.5389 6.57066C64.5003 6.51695 64.4881 6.44037 64.5123 6.36771C64.5357 6.29748 64.5769 6.27008 64.625 6.26407L64.632 6.26319L64.639 6.26212L68.0767 5.73324C68.3192 5.71928 68.5161 5.59942 68.6474 5.48124C68.7832 5.35911 68.8955 5.19839 68.9601 5.02275L70.46 1.76202C70.5291 1.68282 70.6105 1.65722 70.6707 1.6593C70.7274 1.66125 70.7947 1.68701 70.8461 1.78575L72.3659 5.08969C72.5134 5.4883 72.882 5.69022 73.1382 5.7756L73.1784 5.78901L73.2203 5.79545L76.6869 6.32878L76.7247 6.3346H76.763C76.8175 6.3346 76.8396 6.34863 76.8455 6.35277C76.8528 6.35795 76.8602 6.36622 76.8655 6.38149C76.8762 6.41244 76.8777 6.47947 76.8094 6.54771L76.8094 6.54768L76.8048 6.55233L74.2733 9.15052C74.1281 9.29701 74.0472 9.48158 74.0017 9.62922C73.9539 9.78483 73.9296 9.95104 73.9296 10.1013V10.1426L73.9364 10.1835Z" stroke="#6D8434"/>
<path d="M95.2401 10.3487L95.838 13.9358C95.8456 14.0178 95.808 14.0988 95.7501 14.1462C95.7226 14.1687 95.7003 14.1754 95.689 14.1768C95.6817 14.1777 95.6701 14.1784 95.6481 14.1658L95.6481 14.1657L95.642 14.1624L92.5245 12.4378C92.3635 12.3347 92.1754 12.2665 91.9667 12.2665C91.758 12.2665 91.5699 12.3347 91.4088 12.4378L88.2913 14.1624L88.2913 14.1623L88.2853 14.1658C88.2372 14.1932 88.1838 14.1893 88.1389 14.1561C88.1171 14.14 88.1007 14.1187 88.0913 14.0939C88.0826 14.071 88.0751 14.0333 88.0881 13.975L88.091 13.9619L88.0932 13.9487L88.6882 10.3787C88.7522 10.1421 88.7012 9.91682 88.6417 9.76206C88.5763 9.59217 88.4731 9.43336 88.3562 9.31566L85.8426 6.73595C85.804 6.68223 85.7918 6.60565 85.816 6.53299C85.8394 6.46277 85.8806 6.43536 85.9287 6.42935L85.9357 6.42847L85.9427 6.4274L89.3804 5.89853C89.6229 5.88456 89.8199 5.7647 89.9512 5.64653C90.0869 5.52439 90.1992 5.36368 90.2638 5.18804L91.7638 1.92731C91.8328 1.8481 91.9142 1.82251 91.9744 1.82458C92.0311 1.82654 92.0984 1.85229 92.1498 1.95103L93.6697 5.25497C93.8171 5.65358 94.1857 5.8555 94.4419 5.94089L94.4821 5.95429L94.524 5.96073L97.9906 6.49407L98.0284 6.49988H98.0667C98.1212 6.49988 98.1433 6.51391 98.1492 6.51805C98.1565 6.52323 98.1639 6.5315 98.1692 6.54677C98.1799 6.57772 98.1814 6.64475 98.1131 6.71299L98.1131 6.71296L98.1086 6.71761L95.577 9.3158C95.4318 9.46229 95.3509 9.64686 95.3055 9.7945C95.2576 9.95011 95.2333 10.1163 95.2333 10.2665V10.3079L95.2401 10.3487Z" stroke="#6D8434"/>
</svg>
