<svg width="14" height="15" viewBox="0 0 14 15" fill="none" xmlns="http://www.w3.org/2000/svg">
<path d="M6.99963 0.243004C8.96779 0.243004 10.936 0.243004 12.9041 0.243004C13.5947 0.243004 13.9992 0.644547 13.9992 1.33508C13.9992 4.20063 13.9992 7.06314 13.9992 9.92869C13.9992 10.6131 14.0023 11.2945 13.9962 11.979C13.9962 12.1189 13.9871 12.2649 13.9506 12.3988C13.838 12.8429 13.4791 13.1167 13.0197 13.1167C11.6904 13.1167 10.358 13.1197 9.02863 13.1137C8.89783 13.1137 8.81569 13.1562 8.73356 13.2505C8.28639 13.7707 7.79663 14.2422 7.23994 14.6468C7.03005 14.7989 6.95095 14.7959 6.74106 14.6377C6.18437 14.2209 5.67332 13.7555 5.22919 13.2171C5.16531 13.138 5.09534 13.1137 4.99496 13.1137C3.68386 13.1167 2.37276 13.1015 1.06471 13.1228C0.526277 13.1319 -0.00302894 12.7456 1.30493e-05 12.0611C0.00913901 8.87921 0.00609716 5.69425 0.00609716 2.51233C0.00609716 2.10166 0.00305518 1.69099 0.00609716 1.28336C0.0121811 0.641505 0.407639 0.243004 1.0495 0.243004C3.03287 0.239962 5.01625 0.239962 6.99963 0.243004C6.99963 0.239962 6.99963 0.239962 6.99963 0.243004ZM5.00104 0.866612C4.95237 0.860528 4.92499 0.857486 4.89457 0.857486C3.60477 0.857486 2.31497 0.857486 1.02212 0.857486C0.748342 0.857486 0.620579 0.997417 0.620579 1.27728C0.620579 4.87595 0.620579 8.47462 0.620579 12.0733C0.620579 12.3805 0.748342 12.5083 1.05254 12.5083C2.20545 12.5083 3.36141 12.5083 4.51432 12.5083C4.56299 12.5083 4.60862 12.5022 4.64209 12.5022C4.45652 12.1281 4.25271 11.7721 4.10061 11.398C3.79033 10.6344 3.68082 9.84656 3.89072 9.03131C4.28922 7.4951 5.82542 6.41215 7.51372 6.67681C9.27199 6.95363 10.4736 8.64193 10.1755 10.4397C10.0599 11.1424 9.78 11.7782 9.39975 12.3745C9.37542 12.411 9.36021 12.4505 9.32979 12.5083C9.39975 12.5083 9.44843 12.5083 9.4971 12.5083C10.6409 12.5083 11.7847 12.5083 12.9285 12.5083C13.2631 12.5083 13.3817 12.3927 13.3817 12.052C13.3817 8.46854 13.3817 4.88508 13.3817 1.30162C13.3817 0.963955 13.2783 0.857486 12.9406 0.857486C11.6843 0.857486 10.431 0.857486 9.17465 0.857486C9.11989 0.857486 9.06514 0.857486 8.99821 0.857486C8.99821 0.93962 8.99821 1.00046 8.99821 1.05826C8.99821 2.23855 8.99821 3.4158 8.99821 4.59609C8.99821 4.94287 8.7731 5.07672 8.46282 4.91246C8.01565 4.67822 7.56544 4.44399 7.12131 4.20671C7.03613 4.16108 6.97225 4.15804 6.88403 4.20367C6.44294 4.44095 5.99881 4.6691 5.55468 4.90029C5.21702 5.07672 5.00104 4.94896 5.00104 4.56871C5.00104 3.3945 5.00104 2.2203 5.00104 1.04609C5.00104 0.988291 5.00104 0.930493 5.00104 0.866612ZM6.99963 14.0658C7.11522 13.9715 7.22473 13.8833 7.3312 13.792C8.1282 13.0984 8.81265 12.3136 9.25678 11.3432C9.52752 10.747 9.66441 10.1203 9.57011 9.47239C9.35108 7.95444 7.89093 6.9658 6.40035 7.32171C5.08622 7.63503 4.22533 8.864 4.43523 10.2907C4.53257 10.9417 4.7881 11.5257 5.14097 12.0733C5.63986 12.846 6.27868 13.4878 6.99963 14.0658ZM8.36548 0.875738C7.44984 0.875738 6.54333 0.875738 5.63377 0.875738C5.63377 1.9739 5.63377 3.05988 5.63377 4.16717C6.02619 3.96031 6.4034 3.76867 6.77756 3.5679C6.92966 3.48576 7.06655 3.48576 7.22169 3.57094C7.51676 3.73521 7.82096 3.8873 8.11908 4.04245C8.19817 4.08199 8.27726 4.12154 8.36548 4.16717C8.36548 3.05684 8.36548 1.97085 8.36548 0.875738Z" fill="white"/>
<path d="M5.77935 9.84951C5.78543 9.14073 6.32386 8.6175 7.04177 8.62359C7.68363 8.62967 8.23727 9.20765 8.22511 9.86168C8.21294 10.537 7.66538 11.0815 7.00223 11.0754C6.3117 11.0633 5.77326 10.5218 5.77935 9.84951ZM7.60758 9.82517C7.60454 9.49968 7.33685 9.22894 7.01135 9.2259C6.65848 9.22286 6.3847 9.4936 6.3847 9.84342C6.3847 10.1872 6.65848 10.4609 6.99919 10.4579C7.34901 10.4609 7.61062 10.1841 7.60758 9.82517Z" fill="white"/>
</svg>
