<svg width="135" height="27" viewBox="0 0 135 27" fill="none" xmlns="http://www.w3.org/2000/svg">
<g filter="url(#filter0_d_380_3926)">
<path d="M2.44865 2.76407C2.44865 2.76407 4.32592 3.98043 5.42949 6.08076C5.53944 2.6509 3.29973 1.03487 1.0132 0C1.0132 0 0.90325 3.64907 3.00043 5.41803C4.41551 6.61094 5.12611 7.50103 5.44374 7.95474C5.20857 6.63439 3.88409 3.75918 2.44865 2.76407Z" fill="#0BA360"/>
<path d="M5.98127 7.51837C5.98127 7.51837 5.53943 5.19985 7.41671 4.3118C9.29399 3.42375 11.0603 4.20169 11.0603 4.20169C11.0603 4.20169 10.2876 7.18701 6.64401 7.6295C6.64401 7.6295 7.30676 5.7494 9.18302 5.19679C9.18302 5.19985 6.64401 5.63929 5.98127 7.51837Z" fill="#0BA360"/>
</g>
<path d="M6.01112 21.5322C5.2629 21.5322 4.54639 21.4149 3.86158 21.1803C3.17676 20.9393 2.57755 20.5969 2.06395 20.1531C1.55034 19.7029 1.1794 19.1671 0.951127 18.5457L3.63331 17.5565C3.69671 17.7404 3.83621 17.9179 4.0518 18.0891C4.27373 18.2603 4.55273 18.403 4.88879 18.5171C5.22486 18.6249 5.59897 18.6788 6.01112 18.6788C6.39157 18.6788 6.74983 18.6249 7.0859 18.5171C7.42196 18.403 7.69462 18.2476 7.90387 18.0511C8.11311 17.8545 8.21774 17.6262 8.21774 17.3663C8.21774 17.1 8.10677 16.8812 7.88484 16.71C7.66926 16.5324 7.39026 16.3929 7.04785 16.2915C6.71179 16.1837 6.36621 16.1044 6.01112 16.0537C5.04731 15.9142 4.18179 15.6859 3.41455 15.3689C2.65364 15.0455 2.05126 14.6017 1.60741 14.0373C1.16989 13.473 0.951127 12.7565 0.951127 11.8878C0.951127 11.0571 1.18574 10.3311 1.65496 9.70969C2.12418 9.08195 2.74242 8.5937 3.50966 8.24496C4.28324 7.89621 5.11706 7.72184 6.01112 7.72184C6.75934 7.72184 7.47586 7.84231 8.16067 8.08327C8.85182 8.31788 9.4542 8.66028 9.96781 9.11048C10.4814 9.56068 10.8492 10.0997 11.0711 10.7274L8.38894 11.6976C8.32553 11.5137 8.18286 11.3393 7.96093 11.1744C7.74535 11.0032 7.46952 10.8637 7.13345 10.7559C6.79739 10.6481 6.42328 10.5942 6.01112 10.5942C5.64335 10.5879 5.29144 10.6418 4.95537 10.7559C4.61931 10.8701 4.34348 11.0254 4.12789 11.222C3.9123 11.4186 3.80451 11.6405 3.80451 11.8878C3.80451 12.2302 3.90596 12.487 4.10887 12.6582C4.31178 12.8231 4.57809 12.9404 4.90782 13.0101C5.24388 13.0799 5.61165 13.1433 6.01112 13.2003C6.92421 13.3335 7.76437 13.5713 8.53161 13.9137C9.29885 14.2561 9.91392 14.7126 10.3768 15.2833C10.8397 15.854 11.0711 16.5483 11.0711 17.3663C11.0711 18.1969 10.8365 18.9261 10.3673 19.5539C9.9044 20.1753 9.28934 20.6603 8.5221 21.0091C7.75486 21.3578 6.91787 21.5322 6.01112 21.5322ZM16.6643 7.96913H19.8792L24.7109 21.2849H21.6863L20.9254 19.1924H15.6181L14.8572 21.2849H11.8326L16.6643 7.96913ZM16.6643 16.3391H19.8792L18.2622 11.9258L16.6643 16.3391ZM29.4496 21.2849L24.6178 7.96913H27.6424L31.2948 18.013L34.9471 7.96913H37.9717L33.1399 21.2849H29.4496ZM45.4802 21.5322C44.5798 21.5322 43.7333 21.3547 42.9407 20.9996C42.1481 20.6381 41.4506 20.1404 40.8482 19.5063C40.2459 18.8722 39.7735 18.1399 39.4311 17.3092C39.0887 16.4722 38.9174 15.5781 38.9174 14.627C38.9174 13.6759 39.0887 12.785 39.4311 11.9544C39.7735 11.1174 40.2459 10.3818 40.8482 9.74774C41.4506 9.11365 42.1481 8.61907 42.9407 8.26398C43.7333 7.90255 44.5798 7.72184 45.4802 7.72184C46.387 7.72184 47.2366 7.90255 48.0292 8.26398C48.8219 8.61907 49.5193 9.11365 50.1217 9.74774C50.7241 10.3818 51.1933 11.1174 51.5294 11.9544C51.8718 12.785 52.043 13.6759 52.043 14.627C52.043 15.5781 51.8718 16.4722 51.5294 17.3092C51.1933 18.1399 50.7241 18.8722 50.1217 19.5063C49.5193 20.1404 48.8219 20.6381 48.0292 20.9996C47.2366 21.3547 46.387 21.5322 45.4802 21.5322ZM45.4802 18.6788C45.9875 18.6788 46.4631 18.5742 46.9069 18.365C47.3571 18.1494 47.7534 17.8577 48.0958 17.4899C48.4382 17.1158 48.7045 16.6846 48.8948 16.1964C49.0913 15.7081 49.1896 15.185 49.1896 14.627C49.1896 14.069 49.0913 13.5459 48.8948 13.0577C48.7045 12.5694 48.4382 12.1414 48.0958 11.7736C47.7534 11.3995 47.3571 11.1079 46.9069 10.8986C46.4631 10.683 45.9875 10.5752 45.4802 10.5752C44.973 10.5752 44.4942 10.683 44.044 10.8986C43.6002 11.1079 43.207 11.3995 42.8646 11.7736C42.5222 12.1414 42.2527 12.5694 42.0562 13.0577C41.8659 13.5459 41.7708 14.069 41.7708 14.627C41.7708 15.185 41.8659 15.7081 42.0562 16.1964C42.2527 16.6846 42.5222 17.1158 42.8646 17.4899C43.207 17.8577 43.6002 18.1494 44.044 18.365C44.4942 18.5742 44.973 18.6788 45.4802 18.6788ZM53.6577 21.2849V7.96913H59.0791C59.8083 7.96913 60.4678 8.15302 61.0575 8.52079C61.6472 8.88855 62.1132 9.38314 62.4556 10.0045C62.8044 10.6196 62.9787 11.2981 62.9787 12.04C62.9787 12.6106 62.8836 13.1433 62.6934 13.6378C62.5032 14.1261 62.2305 14.5604 61.8754 14.9409C61.5267 15.315 61.1145 15.6162 60.639 15.8445L63.7967 21.2849H60.5058L57.5002 16.1108H56.5111V21.2849H53.6577ZM56.5111 13.2574H58.7367C58.9903 13.2574 59.2218 13.194 59.431 13.0672C59.6403 12.934 59.8083 12.7596 59.9351 12.5441C60.0619 12.3285 60.1254 12.0907 60.1254 11.8307C60.1254 11.5707 60.0619 11.333 59.9351 11.1174C59.8083 10.9018 59.6403 10.7306 59.431 10.6038C59.2218 10.4706 58.9903 10.404 58.7367 10.404H56.5111V13.2574ZM72.3328 7.96913H75.6998L71.0773 15.2928V21.2849H68.2239V15.2928L63.6014 7.96913H66.9684L69.6506 12.1921L72.3328 7.96913Z" fill="black"/>
<path d="M86.7333 21.5322C86.0041 21.5322 85.3034 21.4181 84.6313 21.1898C83.9592 20.9615 83.3726 20.635 82.8717 20.2101C82.3708 19.779 82.0125 19.2685 81.7969 18.6788L83.6516 17.9845C83.7594 18.2889 83.9655 18.5615 84.2699 18.8025C84.5806 19.0371 84.9483 19.221 85.3732 19.3541C85.8044 19.4873 86.2577 19.5539 86.7333 19.5539C87.2406 19.5539 87.7161 19.4714 88.16 19.3066C88.6102 19.1417 88.9716 18.9134 89.2443 18.6218C89.5233 18.3301 89.6628 17.9877 89.6628 17.5945C89.6628 17.1887 89.5169 16.8558 89.2252 16.5959C88.9399 16.3359 88.5721 16.1298 88.1219 15.9776C87.6781 15.8254 87.2152 15.7113 86.7333 15.6352C85.8012 15.483 84.9642 15.2611 84.2223 14.9694C83.4868 14.6777 82.9034 14.2688 82.4722 13.7425C82.0474 13.2162 81.835 12.5314 81.835 11.688C81.835 10.8954 82.0601 10.2043 82.5103 9.61458C82.9668 9.02488 83.566 8.56834 84.3079 8.24496C85.0561 7.91523 85.8646 7.75037 86.7333 7.75037C87.4498 7.75037 88.141 7.86451 88.8067 8.09278C89.4789 8.31471 90.0686 8.64126 90.5758 9.07244C91.0894 9.49728 91.4572 10.0141 91.6791 10.6228L89.8054 11.2981C89.6976 10.9874 89.4916 10.7179 89.1872 10.4896C88.8828 10.255 88.5151 10.0711 88.0839 9.93796C87.6591 9.80481 87.2089 9.73823 86.7333 9.73823C86.226 9.73189 85.7505 9.81432 85.3066 9.98552C84.8691 10.1504 84.5108 10.3787 84.2318 10.6703C83.9528 10.962 83.8133 11.3012 83.8133 11.688C83.8133 12.1636 83.9433 12.525 84.2033 12.7723C84.4633 13.0196 84.812 13.2035 85.2495 13.324C85.6934 13.4381 86.188 13.5427 86.7333 13.6378C87.6083 13.7773 88.4168 14.0088 89.1587 14.3322C89.9069 14.6556 90.5061 15.0867 90.9563 15.6257C91.4128 16.1583 91.6411 16.8146 91.6411 17.5945C91.6411 18.3808 91.4128 19.072 90.9563 19.668C90.5061 20.2577 89.9069 20.7174 89.1587 21.0471C88.4168 21.3705 87.6083 21.5322 86.7333 21.5322ZM93.8391 21.2849V7.96913H98.4235C99.14 7.96913 99.7868 8.14667 100.364 8.50176C100.947 8.85685 101.41 9.33558 101.752 9.93796C102.101 10.5403 102.276 11.2061 102.276 11.9353C102.276 12.6772 102.098 13.3493 101.743 13.9517C101.394 14.5478 100.928 15.0233 100.345 15.3784C99.7615 15.7335 99.121 15.911 98.4235 15.911H95.8174V21.2849H93.8391ZM95.8174 13.9327H98.2238C98.6042 13.9327 98.9498 13.8376 99.2605 13.6474C99.5776 13.4571 99.828 13.2035 100.012 12.8865C100.202 12.5694 100.297 12.2112 100.297 11.8117C100.297 11.4122 100.202 11.054 100.012 10.7369C99.828 10.4135 99.5776 10.1599 99.2605 9.97601C98.9498 9.78578 98.6042 9.69067 98.2238 9.69067H95.8174V13.9327ZM104.093 21.2849V7.96913H108.992C109.715 7.96913 110.365 8.14667 110.942 8.50176C111.519 8.85685 111.975 9.33558 112.311 9.93796C112.654 10.534 112.825 11.1998 112.825 11.9353C112.825 12.5567 112.707 13.1242 112.473 13.6378C112.245 14.1515 111.921 14.589 111.503 14.9504C111.091 15.3118 110.618 15.5718 110.086 15.7303L113.3 21.2849H111.008L107.888 15.911H106.072V21.2849H104.093ZM106.072 13.9327H108.782C109.163 13.9327 109.509 13.8376 109.819 13.6474C110.136 13.4571 110.387 13.2035 110.571 12.8865C110.755 12.5694 110.846 12.2112 110.846 11.8117C110.846 11.4122 110.755 11.054 110.571 10.7369C110.387 10.4135 110.136 10.1599 109.819 9.97601C109.509 9.78578 109.163 9.69067 108.782 9.69067H106.072V13.9327ZM115.295 21.2849V7.96913H123.56V9.94748H117.274V13.1623H122.334V15.1406H117.274V19.3066H123.56V21.2849H115.295ZM125.735 21.2849V7.96913H134.001V9.94748H127.714V13.1623H132.774V15.1406H127.714V19.3066H134.001V21.2849H125.735Z" fill="#0BA360"/>
<defs>
<filter id="filter0_d_380_3926" x="0.426328" y="0" width="11.2199" height="9.12659" filterUnits="userSpaceOnUse" color-interpolation-filters="sRGB">
<feFlood flood-opacity="0" result="BackgroundImageFix"/>
<feColorMatrix in="SourceAlpha" type="matrix" values="0 0 0 0 0 0 0 0 0 0 0 0 0 0 0 0 0 0 127 0" result="hardAlpha"/>
<feOffset dy="0.585879"/>
<feGaussianBlur stdDeviation="0.29294"/>
<feComposite in2="hardAlpha" operator="out"/>
<feColorMatrix type="matrix" values="0 0 0 0 0 0 0 0 0 0 0 0 0 0 0 0 0 0 0.1 0"/>
<feBlend mode="normal" in2="BackgroundImageFix" result="effect1_dropShadow_380_3926"/>
<feBlend mode="normal" in="SourceGraphic" in2="effect1_dropShadow_380_3926" result="shape"/>
</filter>
</defs>
</svg>
