<svg width="136" height="27" viewBox="0 0 136 27" fill="none" xmlns="http://www.w3.org/2000/svg">
<g filter="url(#filter0_d_803_568)">
<path d="M2.44914 2.76407C2.44914 2.76407 4.32641 3.98043 5.42998 6.08076C5.53992 2.6509 3.30022 1.03487 1.01369 0C1.01369 0 0.903738 3.64907 3.00092 5.41803C4.416 6.61094 5.1266 7.50103 5.44423 7.95474C5.20906 6.63439 3.88458 3.75918 2.44914 2.76407Z" fill="#6D8434"/>
<path d="M5.98175 7.51837C5.98175 7.51837 5.53992 5.19985 7.4172 4.3118C9.29448 3.42375 11.0608 4.20169 11.0608 4.20169C11.0608 4.20169 10.2881 7.18701 6.6445 7.6295C6.6445 7.6295 7.30725 5.7494 9.18351 5.19679C9.18351 5.19985 6.6445 5.63929 5.98175 7.51837Z" fill="#6D8434"/>
</g>
<path d="M6.01112 21.532C5.2629 21.532 4.54639 21.4147 3.86158 21.18C3.17676 20.9391 2.57755 20.5967 2.06395 20.1528C1.55034 19.7026 1.1794 19.1668 0.951127 18.5454L3.63331 17.5562C3.69671 17.7401 3.83621 17.9177 4.0518 18.0889C4.27373 18.2601 4.55273 18.4028 4.88879 18.5169C5.22486 18.6247 5.59897 18.6786 6.01112 18.6786C6.39157 18.6786 6.74983 18.6247 7.0859 18.5169C7.42196 18.4028 7.69462 18.2474 7.90387 18.0508C8.11311 17.8543 8.21774 17.626 8.21774 17.366C8.21774 17.0997 8.10677 16.8809 7.88484 16.7097C7.66926 16.5322 7.39026 16.3927 7.04785 16.2913C6.71179 16.1835 6.36621 16.1042 6.01112 16.0535C5.04731 15.914 4.18179 15.6857 3.41455 15.3687C2.65364 15.0453 2.05126 14.6014 1.60741 14.0371C1.16989 13.4727 0.951127 12.7562 0.951127 11.8875C0.951127 11.0569 1.18574 10.3309 1.65496 9.70945C2.12418 9.08171 2.74242 8.59346 3.50966 8.24471C4.28324 7.89597 5.11706 7.72159 6.01112 7.72159C6.75934 7.72159 7.47586 7.84207 8.16067 8.08302C8.85182 8.31763 9.4542 8.66004 9.96781 9.11024C10.4814 9.56044 10.8492 10.0994 11.0711 10.7272L8.38894 11.6973C8.32553 11.5134 8.18286 11.339 7.96093 11.1742C7.74535 11.003 7.46952 10.8635 7.13345 10.7557C6.79739 10.6479 6.42328 10.594 6.01112 10.594C5.64335 10.5877 5.29144 10.6416 4.95537 10.7557C4.61931 10.8698 4.34348 11.0252 4.12789 11.2217C3.9123 11.4183 3.80451 11.6402 3.80451 11.8875C3.80451 12.2299 3.90596 12.4867 4.10887 12.6579C4.31178 12.8228 4.57809 12.9401 4.90782 13.0099C5.24388 13.0796 5.61165 13.143 6.01112 13.2001C6.92421 13.3332 7.76437 13.571 8.53161 13.9134C9.29885 14.2558 9.91392 14.7124 10.3768 15.2831C10.8397 15.8537 11.0711 16.5481 11.0711 17.366C11.0711 18.1967 10.8365 18.9259 10.3673 19.5536C9.9044 20.175 9.28934 20.6601 8.5221 21.0088C7.75486 21.3576 6.91787 21.532 6.01112 21.532ZM16.6643 7.96889H19.8792L24.7109 21.2847H21.6863L20.9254 19.1922H15.6181L14.8572 21.2847H11.8326L16.6643 7.96889ZM16.6643 16.3388H19.8792L18.2622 11.9256L16.6643 16.3388ZM29.4496 21.2847L24.6178 7.96889H27.6424L31.2948 18.0128L34.9471 7.96889H37.9717L33.1399 21.2847H29.4496ZM45.4802 21.532C44.5798 21.532 43.7333 21.3544 42.9407 20.9993C42.1481 20.6379 41.4506 20.1401 40.8482 19.5061C40.2459 18.872 39.7735 18.1396 39.4311 17.309C39.0887 16.472 38.9174 15.5779 38.9174 14.6268C38.9174 13.6757 39.0887 12.7848 39.4311 11.9541C39.7735 11.1171 40.2459 10.3816 40.8482 9.7475C41.4506 9.11341 42.1481 8.61882 42.9407 8.26374C43.7333 7.90231 44.5798 7.72159 45.4802 7.72159C46.387 7.72159 47.2366 7.90231 48.0292 8.26374C48.8219 8.61882 49.5193 9.11341 50.1217 9.7475C50.7241 10.3816 51.1933 11.1171 51.5294 11.9541C51.8718 12.7848 52.043 13.6757 52.043 14.6268C52.043 15.5779 51.8718 16.472 51.5294 17.309C51.1933 18.1396 50.7241 18.872 50.1217 19.5061C49.5193 20.1401 48.8219 20.6379 48.0292 20.9993C47.2366 21.3544 46.387 21.532 45.4802 21.532ZM45.4802 18.6786C45.9875 18.6786 46.4631 18.574 46.9069 18.3647C47.3571 18.1491 47.7534 17.8574 48.0958 17.4897C48.4382 17.1156 48.7045 16.6844 48.8948 16.1961C49.0913 15.7079 49.1896 15.1848 49.1896 14.6268C49.1896 14.0688 49.0913 13.5457 48.8948 13.0574C48.7045 12.5692 48.4382 12.1412 48.0958 11.7734C47.7534 11.3993 47.3571 11.1076 46.9069 10.8984C46.4631 10.6828 45.9875 10.575 45.4802 10.575C44.973 10.575 44.4942 10.6828 44.044 10.8984C43.6002 11.1076 43.207 11.3993 42.8646 11.7734C42.5222 12.1412 42.2527 12.5692 42.0562 13.0574C41.8659 13.5457 41.7708 14.0688 41.7708 14.6268C41.7708 15.1848 41.8659 15.7079 42.0562 16.1961C42.2527 16.6844 42.5222 17.1156 42.8646 17.4897C43.207 17.8574 43.6002 18.1491 44.044 18.3647C44.4942 18.574 44.973 18.6786 45.4802 18.6786ZM53.6577 21.2847V7.96889H59.0791C59.8083 7.96889 60.4678 8.15277 61.0575 8.52054C61.6472 8.88831 62.1132 9.3829 62.4556 10.0043C62.8044 10.6194 62.9787 11.2978 62.9787 12.0397C62.9787 12.6104 62.8836 13.143 62.6934 13.6376C62.5032 14.1259 62.2305 14.5602 61.8754 14.9406C61.5267 15.3148 61.1145 15.6159 60.639 15.8442L63.7967 21.2847H60.5058L57.5002 16.1105H56.5111V21.2847H53.6577ZM56.5111 13.2572H58.7367C58.9903 13.2572 59.2218 13.1937 59.431 13.0669C59.6403 12.9338 59.8083 12.7594 59.9351 12.5438C60.0619 12.3282 60.1254 12.0904 60.1254 11.8305C60.1254 11.5705 60.0619 11.3327 59.9351 11.1171C59.8083 10.9015 59.6403 10.7303 59.431 10.6035C59.2218 10.4704 58.9903 10.4038 58.7367 10.4038H56.5111V13.2572ZM72.3328 7.96889H75.6998L71.0773 15.2926V21.2847H68.2239V15.2926L63.6014 7.96889H66.9684L69.6506 12.1919L72.3328 7.96889ZM86.8569 21.532C86.1087 21.532 85.3922 21.4147 84.7074 21.18C84.0226 20.9391 83.4234 20.5967 82.9098 20.1528C82.3961 19.7026 82.0252 19.1668 81.7969 18.5454L84.4791 17.5562C84.5425 17.7401 84.682 17.9177 84.8976 18.0889C85.1195 18.2601 85.3985 18.4028 85.7346 18.5169C86.0707 18.6247 86.4448 18.6786 86.8569 18.6786C87.2374 18.6786 87.5956 18.6247 87.9317 18.5169C88.2678 18.4028 88.5404 18.2474 88.7497 18.0508C88.9589 17.8543 89.0635 17.626 89.0635 17.366C89.0635 17.0997 88.9526 16.8809 88.7307 16.7097C88.5151 16.5322 88.2361 16.3927 87.8937 16.2913C87.5576 16.1835 87.212 16.1042 86.8569 16.0535C85.8931 15.914 85.0276 15.6857 84.2604 15.3687C83.4995 15.0453 82.8971 14.6014 82.4532 14.0371C82.0157 13.4727 81.7969 12.7562 81.7969 11.8875C81.7969 11.0569 82.0315 10.3309 82.5008 9.70945C82.97 9.08171 83.5882 8.59346 84.3555 8.24471C85.1291 7.89597 85.9629 7.72159 86.8569 7.72159C87.6052 7.72159 88.3217 7.84207 89.0065 8.08302C89.6976 8.31763 90.3 8.66004 90.8136 9.11024C91.3272 9.56044 91.695 10.0994 91.9169 10.7272L89.2348 11.6973C89.1713 11.5134 89.0287 11.339 88.8067 11.1742C88.5912 11.003 88.3153 10.8635 87.9793 10.7557C87.6432 10.6479 87.2691 10.594 86.8569 10.594C86.4892 10.5877 86.1372 10.6416 85.8012 10.7557C85.4651 10.8698 85.1893 11.0252 84.9737 11.2217C84.7581 11.4183 84.6503 11.6402 84.6503 11.8875C84.6503 12.2299 84.7518 12.4867 84.9547 12.6579C85.1576 12.8228 85.4239 12.9401 85.7536 13.0099C86.0897 13.0796 86.4575 13.143 86.8569 13.2001C87.77 13.3332 88.6102 13.571 89.3774 13.9134C90.1447 14.2558 90.7597 14.7124 91.2226 15.2831C91.6855 15.8537 91.9169 16.5481 91.9169 17.366C91.9169 18.1967 91.6823 18.9259 91.2131 19.5536C90.7502 20.175 90.1352 20.6601 89.3679 21.0088C88.6007 21.3576 87.7637 21.532 86.8569 21.532ZM94.0063 21.2847V7.96889H99.0282C99.7574 7.96889 100.417 8.15594 101.007 8.53005C101.603 8.89782 102.075 9.39241 102.424 10.0138C102.773 10.6289 102.947 11.3042 102.947 12.0397C102.947 12.7879 102.766 13.4696 102.405 14.0846C102.05 14.6997 101.574 15.1911 100.978 15.5589C100.382 15.9267 99.7321 16.1105 99.0282 16.1105H96.8597V21.2847H94.0063ZM96.8597 13.2572H98.7049C98.9585 13.2572 99.1899 13.1937 99.3992 13.0669C99.6084 12.9338 99.7765 12.7594 99.9033 12.5438C100.03 12.3282 100.094 12.0904 100.094 11.8305C100.094 11.5705 100.03 11.3327 99.9033 11.1171C99.7765 10.9015 99.6084 10.7303 99.3992 10.6035C99.1899 10.4704 98.9585 10.4038 98.7049 10.4038H96.8597V13.2572ZM104.576 21.2847V7.96889H109.998C110.727 7.96889 111.387 8.15277 111.976 8.52054C112.566 8.88831 113.032 9.3829 113.374 10.0043C113.723 10.6194 113.897 11.2978 113.897 12.0397C113.897 12.6104 113.802 13.143 113.612 13.6376C113.422 14.1259 113.149 14.5602 112.794 14.9406C112.445 15.3148 112.033 15.6159 111.558 15.8442L114.715 21.2847H111.425L108.419 16.1105H107.43V21.2847H104.576ZM107.43 13.2572H109.655C109.909 13.2572 110.141 13.1937 110.35 13.0669C110.559 12.9338 110.727 12.7594 110.854 12.5438C110.981 12.3282 111.044 12.0904 111.044 11.8305C111.044 11.5705 110.981 11.3327 110.854 11.1171C110.727 10.9015 110.559 10.7303 110.35 10.6035C110.141 10.4704 109.909 10.4038 109.655 10.4038H107.43V13.2572ZM116.243 21.2847V7.96889H124.727V10.8223H119.096V12.7245H123.433V15.5779H119.096V18.4313H124.727V21.2847H116.243ZM126.813 21.2847V7.96889H135.297V10.8223H129.666V12.7245H134.003V15.5779H129.666V18.4313H135.297V21.2847H126.813Z" fill="#121212"/>
<defs>
<filter id="filter0_d_803_568" x="0.426816" y="0" width="11.2196" height="9.12635" filterUnits="userSpaceOnUse" color-interpolation-filters="sRGB">
<feFlood flood-opacity="0" result="BackgroundImageFix"/>
<feColorMatrix in="SourceAlpha" type="matrix" values="0 0 0 0 0 0 0 0 0 0 0 0 0 0 0 0 0 0 127 0" result="hardAlpha"/>
<feOffset dy="0.585879"/>
<feGaussianBlur stdDeviation="0.29294"/>
<feComposite in2="hardAlpha" operator="out"/>
<feColorMatrix type="matrix" values="0 0 0 0 0 0 0 0 0 0 0 0 0 0 0 0 0 0 0.1 0"/>
<feBlend mode="normal" in2="BackgroundImageFix" result="effect1_dropShadow_803_568"/>
<feBlend mode="normal" in="SourceGraphic" in2="effect1_dropShadow_803_568" result="shape"/>
</filter>
</defs>
</svg>
