<svg width="20" height="20" viewBox="0 0 20 20" fill="none" xmlns="http://www.w3.org/2000/svg">
<path fill-rule="evenodd" clip-rule="evenodd" d="M9.99963 2.5C7.96263 2.5 7.70763 2.5085 6.90763 2.545C6.10913 2.5815 5.56363 2.7085 5.08663 2.894C4.58663 3.082 4.13313 3.377 3.75813 3.759C3.37674 4.13357 3.08156 4.58675 2.89313 5.087C2.70863 5.564 2.58113 6.11 2.54463 6.9085C2.50863 7.708 2.49963 7.9625 2.49963 10C2.49963 12.0375 2.50813 12.292 2.54463 13.092C2.58113 13.8905 2.70813 14.436 2.89363 14.913C3.08163 15.413 3.37663 15.8665 3.75863 16.2415C4.13321 16.6229 4.58639 16.9181 5.08663 17.1065C5.56363 17.2915 6.10913 17.4185 6.90763 17.455C7.70763 17.4915 7.96263 17.5 9.99963 17.5C12.0366 17.5 12.2916 17.4915 13.0916 17.455C13.8901 17.4185 14.4356 17.2915 14.9126 17.106C15.4126 16.918 15.8661 16.623 16.2411 16.241C16.6225 15.8664 16.9177 15.4133 17.1061 14.913C17.2911 14.436 17.4181 13.8905 17.4546 13.092C17.4911 12.292 17.4996 12.037 17.4996 10C17.4996 7.963 17.4911 7.708 17.4546 6.908C17.4181 6.1095 17.2911 5.564 17.1056 5.087C16.9173 4.58653 16.6221 4.13316 16.2406 3.7585C15.8661 3.37711 15.4129 3.08193 14.9126 2.8935C14.4356 2.709 13.8896 2.5815 13.0911 2.545C12.2916 2.509 12.0371 2.5 9.99963 2.5ZM9.99963 3.8515C12.0021 3.8515 12.2396 3.859 13.0306 3.895C13.7616 3.9285 14.1586 4.05 14.4231 4.1535C14.7731 4.289 15.0231 4.452 15.2856 4.714C15.5481 4.9765 15.7106 5.2265 15.8461 5.5765C15.9491 5.841 16.0711 6.238 16.1046 6.969C16.1406 7.76 16.1481 7.9975 16.1481 10C16.1481 12.0025 16.1406 12.24 16.1046 13.031C16.0711 13.762 15.9496 14.159 15.8461 14.4235C15.7261 14.7493 15.5346 15.044 15.2856 15.286C15.0437 15.535 14.7489 15.7265 14.4231 15.8465C14.1586 15.9495 13.7616 16.0715 13.0306 16.105C12.2396 16.141 12.0026 16.1485 9.99963 16.1485C7.99663 16.1485 7.75963 16.141 6.96863 16.105C6.23763 16.0715 5.84063 15.95 5.57613 15.8465C5.25036 15.7265 4.95564 15.5349 4.71363 15.286C4.46472 15.044 4.2732 14.7493 4.15313 14.4235C4.05013 14.159 3.92813 13.762 3.89463 13.031C3.85863 12.24 3.85113 12.0025 3.85113 10C3.85113 7.9975 3.85863 7.76 3.89463 6.969C3.92813 6.238 4.04963 5.841 4.15313 5.5765C4.28863 5.2265 4.45163 4.9765 4.71363 4.714C4.9556 4.46502 5.25034 4.27349 5.57613 4.1535C5.84063 4.0505 6.23763 3.9285 6.96863 3.895C7.75963 3.859 7.99713 3.8515 9.99963 3.8515Z" fill="#6D8434"/>
<path fill-rule="evenodd" clip-rule="evenodd" d="M9.9999 12.5026C9.67126 12.5026 9.34585 12.4378 9.04223 12.3121C8.73861 12.1863 8.46274 12.002 8.23036 11.7696C7.99798 11.5372 7.81365 11.2614 7.68789 10.9577C7.56213 10.6541 7.4974 10.3287 7.4974 10.0001C7.4974 9.67144 7.56213 9.34602 7.68789 9.0424C7.81365 8.73879 7.99798 8.46291 8.23036 8.23053C8.46274 7.99816 8.73861 7.81382 9.04223 7.68806C9.34585 7.5623 9.67126 7.49757 9.9999 7.49757C10.6636 7.49757 11.3001 7.76122 11.7694 8.23053C12.2387 8.69984 12.5024 9.33636 12.5024 10.0001C12.5024 10.6638 12.2387 11.3003 11.7694 11.7696C11.3001 12.2389 10.6636 12.5026 9.9999 12.5026ZM9.9999 6.14507C8.97749 6.14507 7.99695 6.55122 7.274 7.27417C6.55105 7.99712 6.1449 8.97766 6.1449 10.0001C6.1449 11.0225 6.55105 12.003 7.274 12.726C7.99695 13.4489 8.97749 13.8551 9.9999 13.8551C11.0223 13.8551 12.0028 13.4489 12.7258 12.726C13.4487 12.003 13.8549 11.0225 13.8549 10.0001C13.8549 8.97766 13.4487 7.99712 12.7258 7.27417C12.0028 6.55122 11.0223 6.14507 9.9999 6.14507ZM14.9764 6.07507C14.9764 6.31675 14.8804 6.54853 14.7095 6.71942C14.5386 6.89031 14.3068 6.98632 14.0651 6.98632C13.8235 6.98632 13.5917 6.89031 13.4208 6.71942C13.2499 6.54853 13.1539 6.31675 13.1539 6.07507C13.1539 5.83339 13.2499 5.60161 13.4208 5.43072C13.5917 5.25982 13.8235 5.16382 14.0651 5.16382C14.3068 5.16382 14.5386 5.25982 14.7095 5.43072C14.8804 5.60161 14.9764 5.83339 14.9764 6.07507Z" fill="#6D8434"/>
</svg>
