<svg width="20" height="20" viewBox="0 0 20 20" fill="none" xmlns="http://www.w3.org/2000/svg">
<path fill-rule="evenodd" clip-rule="evenodd" d="M18.3335 9.99984C18.3335 14.6022 14.6026 18.3332 10.0002 18.3332C5.39783 18.3332 1.66687 14.6022 1.66687 9.99984C1.66687 5.39746 5.39783 1.6665 10.0002 1.6665C14.6026 1.6665 18.3335 5.39746 18.3335 9.99984ZM10.2988 7.81855C9.48828 8.15568 7.86834 8.85346 5.439 9.91188C5.04452 10.0688 4.83787 10.2222 4.81905 10.3723C4.78726 10.6259 5.10485 10.7258 5.53732 10.8617C5.59615 10.8802 5.6571 10.8994 5.71959 10.9197C6.14507 11.058 6.71743 11.2198 7.01497 11.2263C7.28487 11.2321 7.58611 11.1208 7.91869 10.8924C10.1885 9.36027 11.3602 8.58583 11.4337 8.56913C11.4856 8.55735 11.5575 8.54254 11.6063 8.58585C11.655 8.62916 11.6502 8.71118 11.645 8.73318C11.6136 8.86731 10.3669 10.0263 9.7218 10.6261C9.52068 10.8131 9.37802 10.9457 9.34885 10.976C9.28352 11.0438 9.21694 11.108 9.15295 11.1697C8.75766 11.5508 8.46124 11.8365 9.16936 12.3032C9.50965 12.5274 9.78195 12.7129 10.0536 12.8979C10.3503 13.0999 10.6462 13.3014 11.0291 13.5524C11.1266 13.6163 11.2198 13.6828 11.3105 13.7474C11.6558 13.9936 11.966 14.2147 12.3492 14.1795C12.5719 14.159 12.8019 13.9496 12.9187 13.3251C13.1948 11.8493 13.7374 8.65155 13.8628 7.33386C13.8738 7.21841 13.86 7.07066 13.8489 7.0058C13.8378 6.94094 13.8146 6.84853 13.7303 6.78012C13.6305 6.69911 13.4763 6.68202 13.4074 6.68324C13.094 6.68876 12.6131 6.85597 10.2988 7.81855Z" fill="#6D8434"/>
</svg>
