<svg width="14" height="13" viewBox="0 0 14 13" fill="none" xmlns="http://www.w3.org/2000/svg">
<path d="M2.50947 9.40396C2.68699 9.57883 2.77588 9.82235 2.75192 10.0682C2.69822 10.6191 2.57455 11.1924 2.41571 11.7251C3.59265 11.4579 4.31145 11.1479 4.63819 10.9853C4.82365 10.8929 5.03728 10.8711 5.2381 10.924C5.79315 11.0702 6.38471 11.1495 7 11.1495C10.3713 11.1495 12.9062 8.82256 12.9062 6.17663C12.9062 3.53071 10.3713 1.2038 7 1.2038C3.62871 1.2038 1.09375 3.53071 1.09375 6.17663C1.09375 7.39339 1.6146 8.52247 2.50947 9.40396ZM2.0935 12.6404C2.08782 12.6415 2.08213 12.6426 2.07643 12.6437C1.99895 12.6587 1.91997 12.6735 1.83947 12.688C1.72656 12.7083 1.61067 12.7281 1.49176 12.7472C1.32385 12.7742 1.19531 12.6016 1.26164 12.4477C1.30497 12.3472 1.34769 12.2418 1.38932 12.1325C1.41576 12.0631 1.44175 11.9921 1.46718 11.9198C1.46828 11.9166 1.46937 11.9135 1.47047 11.9104C1.6795 11.3139 1.84972 10.6282 1.91201 9.98919C0.876958 8.96961 0.25 7.63605 0.25 6.17663C0.25 2.97248 3.27208 0.375 7 0.375C10.7279 0.375 13.75 2.97248 13.75 6.17663C13.75 9.38079 10.7279 11.9783 7 11.9783C6.31086 11.9783 5.64585 11.8895 5.01958 11.7246C4.58128 11.9427 3.6371 12.3399 2.0935 12.6404Z" fill="#121212"/>
</svg>
