<svg width="14" height="14" viewBox="0 0 14 14" fill="none" xmlns="http://www.w3.org/2000/svg">
<path d="M3.06333 0.000488281C3.30495 0.000488281 3.50081 0.196355 3.50081 0.437968V0.875448H10.5005V0.437968C10.5005 0.196355 10.6964 0.000488281 10.938 0.000488281C11.1796 0.000488281 11.3754 0.196355 11.3754 0.437968V0.875448H12.2504C13.2169 0.875448 14.0003 1.65891 14.0003 2.62537V12.2499C14.0003 13.2164 13.2169 13.9998 12.2504 13.9998H1.7509C0.784442 13.9998 0.000976562 13.2164 0.000976562 12.2499V2.62537C0.000976562 1.65891 0.784442 0.875448 1.7509 0.875448H2.62585V0.437968C2.62585 0.196355 2.82172 0.000488281 3.06333 0.000488281ZM1.7509 1.75041C1.26767 1.75041 0.875936 2.14214 0.875936 2.62537V3.50033H13.1254V2.62537C13.1254 2.14214 12.7336 1.75041 12.2504 1.75041H1.7509ZM13.1254 4.37529H0.875936V12.2499C0.875936 12.7331 1.26767 13.1249 1.7509 13.1249H12.2504C12.7336 13.1249 13.1254 12.7331 13.1254 12.2499V4.37529Z" fill="#121212"/>
<path d="M9.625 6.56248C9.625 6.32087 9.82087 6.125 10.0625 6.125H10.9374C11.1791 6.125 11.3749 6.32087 11.3749 6.56248V7.43744C11.3749 7.67905 11.1791 7.87492 10.9374 7.87492H10.0625C9.82087 7.87492 9.625 7.67905 9.625 7.43744V6.56248Z" fill="#121212"/>
</svg>
