<svg width="13" height="15" viewBox="0 0 13 15" fill="none" xmlns="http://www.w3.org/2000/svg">
<path d="M6.74635 14.5885C6.44694 14.5259 6.16093 14.4321 5.91068 14.2444C5.29844 13.7886 5.04819 13.011 5.29397 12.3004C5.54423 11.581 6.2235 11.1117 6.99661 11.1296C7.7295 11.1475 8.39089 11.6614 8.60092 12.3809C8.61433 12.4211 8.62327 12.4613 8.63668 12.5015C9.29807 12.6356 10.4957 12.0368 10.889 11.362C10.7683 11.362 10.6611 11.362 10.5538 11.362C10.308 11.3575 10.1829 11.2324 10.1829 10.9821C10.1829 9.56997 10.1829 8.15781 10.1829 6.74565C10.1829 6.65627 10.2008 6.56243 10.2321 6.47752C10.2812 6.34792 10.3795 6.27195 10.5315 6.27642C10.6432 6.28089 10.7504 6.27642 10.8532 6.27642C10.8666 6.25408 10.8756 6.24961 10.8756 6.24067C10.9292 5.19049 10.8711 4.15819 10.2902 3.2376C9.36957 1.77182 8.04232 1.03446 6.3084 1.13724C4.23932 1.2579 2.59479 2.80412 2.32666 4.84639C2.26409 5.31115 2.28644 5.78485 2.26856 6.27642C2.39816 6.27642 2.50094 6.27642 2.60372 6.27642C2.81823 6.27642 2.94336 6.38814 2.97464 6.60265C2.98358 6.66521 2.98358 6.73225 2.98358 6.79481C2.98358 8.18462 2.98358 9.57444 2.98358 10.9598C2.98358 11.2413 2.86739 11.3575 2.59032 11.3575C2.16131 11.3575 1.7323 11.3709 1.30329 11.3486C0.601678 11.3173 0.0296654 10.7542 0.01179 10.0571C-0.00608542 9.24821 -0.00161657 8.44382 0.01179 7.63495C0.0251966 6.95569 0.597209 6.24067 1.43735 6.27642C1.47757 6.27642 1.51779 6.27642 1.58483 6.27642C1.58483 6.20939 1.58483 6.1513 1.58483 6.0932C1.58929 5.55247 1.55801 5.01174 1.6742 4.47994C2.04065 2.7505 3.0238 1.49922 4.65046 0.811016C7.37646 -0.341949 10.4466 1.09255 11.3537 3.90346C11.5325 4.45313 11.5951 5.02068 11.5906 5.59269C11.5906 5.81166 11.5906 6.03511 11.5906 6.26749C11.8721 6.27195 12.1179 6.35239 12.3279 6.52668C12.7301 6.8529 12.9625 7.28192 12.9804 7.79136C13.0072 8.57788 13.0027 9.36887 12.9893 10.1599C12.9804 10.7542 12.6095 11.1832 12.0196 11.2815C11.814 11.3173 11.7023 11.4067 11.5951 11.572C11.0588 12.4122 10.2991 12.935 9.32488 13.1316C9.10591 13.1763 8.87799 13.1897 8.64115 13.2166C8.53836 13.7573 8.22554 14.155 7.72503 14.3919C7.54181 14.4812 7.33624 14.5215 7.13961 14.584C7.00555 14.5885 6.87595 14.5885 6.74635 14.5885ZM2.28197 6.97356C2.00937 6.97356 1.75017 6.97356 1.49098 6.97356C1.01281 6.97356 0.7134 7.26404 0.708931 7.74221C0.704462 8.48851 0.704462 9.2348 0.708931 9.9811C0.708931 10.3565 0.999407 10.647 1.37479 10.6559C1.64739 10.6604 1.91999 10.6559 2.19259 10.6559C2.22387 10.6559 2.25515 10.647 2.28197 10.6425C2.28197 9.4225 2.28197 8.20697 2.28197 6.97356ZM10.8934 10.6559C11.1258 10.6559 11.3537 10.6559 11.5772 10.6559C11.6353 10.6559 11.6978 10.6559 11.7559 10.647C12.0956 10.5978 12.2833 10.4235 12.2877 10.133C12.2922 9.37781 12.2922 8.62257 12.2877 7.86287C12.2833 7.5992 12.1849 7.35342 12.0017 7.16126C11.9168 7.07635 11.8006 6.99144 11.6889 6.97803C11.4297 6.95122 11.166 6.96909 10.8979 6.96909C10.8934 8.20697 10.8934 9.42696 10.8934 10.6559ZM7.97082 12.8814C7.96635 12.2736 7.52393 11.8178 6.93404 11.8178C6.3665 11.8178 5.89727 12.287 5.90174 12.8456C5.91068 13.4132 6.40225 13.8958 6.96533 13.8869C7.51946 13.8779 7.97082 13.4266 7.97082 12.8814Z" fill="white"/>
</svg>
