<svg width="28" height="22" viewBox="0 0 28 22" fill="none" xmlns="http://www.w3.org/2000/svg">
<g filter="url(#filter0_d_803_567)">
<path d="M5.43096 6.60203C5.43096 6.60203 9.91486 9.50731 12.5507 14.524C12.8133 6.33171 7.46378 2.4718 2.00237 0C2.00237 0 1.73976 8.71584 6.74889 12.941C10.1288 15.7903 11.8261 17.9163 12.5848 19C12.0231 15.8463 8.85954 8.97885 5.43096 6.60203Z" fill="#6D8434"/>
<path d="M13.8687 17.9577C13.8687 17.9577 12.8133 12.4199 17.2972 10.2988C21.7811 8.17767 26 10.0358 26 10.0358C26 10.0358 24.1544 17.1663 15.4516 18.2232C15.4516 18.2232 17.0346 13.7325 21.5161 12.4126C21.5161 12.4199 15.4516 13.4695 13.8687 17.9577Z" fill="#6D8434"/>
</g>
<defs>
<filter id="filter0_d_803_567" x="0.60062" y="0" width="26.7988" height="21.7988" filterUnits="userSpaceOnUse" color-interpolation-filters="sRGB">
<feFlood flood-opacity="0" result="BackgroundImageFix"/>
<feColorMatrix in="SourceAlpha" type="matrix" values="0 0 0 0 0 0 0 0 0 0 0 0 0 0 0 0 0 0 127 0" result="hardAlpha"/>
<feOffset dy="1.39938"/>
<feGaussianBlur stdDeviation="0.69969"/>
<feComposite in2="hardAlpha" operator="out"/>
<feColorMatrix type="matrix" values="0 0 0 0 0 0 0 0 0 0 0 0 0 0 0 0 0 0 0.1 0"/>
<feBlend mode="normal" in2="BackgroundImageFix" result="effect1_dropShadow_803_567"/>
<feBlend mode="normal" in="SourceGraphic" in2="effect1_dropShadow_803_567" result="shape"/>
</filter>
</defs>
</svg>
