<svg width="48" height="48" viewBox="0 0 48 48" fill="none" xmlns="http://www.w3.org/2000/svg">
<path d="M10.5 43.5H37.5" stroke="#6D8434" stroke-width="2" stroke-linecap="round" stroke-linejoin="round"/>
<path d="M24 25.5C25.5913 25.5 27.1174 24.8679 28.2426 23.7426C29.3679 22.6174 30 21.0913 30 19.5C30 17.9087 29.3679 16.3826 28.2426 15.2574C27.1174 14.1321 25.5913 13.5 24 13.5C22.4087 13.5 20.8826 14.1321 19.7574 15.2574C18.6321 16.3826 18 17.9087 18 19.5C18 21.0913 18.6321 22.6174 19.7574 23.7426C20.8826 24.8679 22.4087 25.5 24 25.5V25.5Z" stroke="#6D8434" stroke-width="2" stroke-linecap="round" stroke-linejoin="round"/>
<path d="M39 19.5C39 33 24 43.5 24 43.5C24 43.5 9 33 9 19.5C9 15.5218 10.5804 11.7064 13.3934 8.8934C16.2064 6.08035 20.0218 4.5 24 4.5C27.9782 4.5 31.7936 6.08035 34.6066 8.8934C37.4196 11.7064 39 15.5218 39 19.5V19.5Z" stroke="#6D8434" stroke-width="2" stroke-linecap="round" stroke-linejoin="round"/>
</svg>
