<svg width="48" height="48" viewBox="0 0 48 48" fill="none" xmlns="http://www.w3.org/2000/svg">
<path d="M29.6307 6.81592C32.3997 7.56064 34.9244 9.01983 36.9519 11.0474C38.9794 13.0749 40.4386 15.5995 41.1833 18.3685" stroke="#6D8434" stroke-width="2" stroke-linecap="round" stroke-linejoin="round"/>
<path d="M27.9404 13.1294C29.6014 13.5763 31.1159 14.4516 32.3322 15.6679C33.5484 16.8842 34.4238 18.3986 34.8707 20.0596" stroke="#6D8434" stroke-width="2" stroke-linecap="round" stroke-linejoin="round"/>
<path d="M15.9647 24.133C17.6584 27.5969 20.4658 30.3922 23.937 32.071C24.1911 32.1914 24.4723 32.2435 24.7527 32.222C25.0332 32.2005 25.3031 32.1062 25.536 31.9485L30.6483 28.5414C30.8742 28.3906 31.134 28.2985 31.4043 28.2734C31.6747 28.2483 31.947 28.291 32.1967 28.3976L41.7599 32.4973C42.0847 32.6353 42.356 32.8751 42.5327 33.1806C42.7094 33.4861 42.7822 33.8407 42.7399 34.1911C42.4372 36.5561 41.283 38.7297 39.4932 40.3051C37.7035 41.8805 35.401 42.7496 33.0167 42.7498C25.6525 42.7498 18.5899 39.8243 13.3827 34.6171C8.17541 29.4098 5.25 22.3473 5.25 14.9831C5.25022 12.599 6.11939 10.2966 7.69479 8.50718C9.27019 6.71772 11.4438 5.56381 13.8087 5.26147C14.1591 5.21922 14.5137 5.29194 14.8192 5.46869C15.1247 5.64543 15.3644 5.91664 15.5024 6.24147L19.6054 15.8128C19.7109 16.0601 19.7537 16.3296 19.7301 16.5975C19.7064 16.8653 19.617 17.1232 19.4698 17.3481L16.0725 22.5389C15.9183 22.7726 15.8273 23.0423 15.8084 23.3217C15.7895 23.6011 15.8434 23.8806 15.9647 24.133V24.133Z" stroke="#6D8434" stroke-width="2" stroke-linecap="round" stroke-linejoin="round"/>
</svg>
