<svg width="83" height="68" viewBox="0 0 83 68" fill="none" xmlns="http://www.w3.org/2000/svg">
<path d="M82.0282 53.5999L81.4669 54.7922C79.6334 55.4246 79.6334 55.4246 78.7012 56.4301C78.6045 56.3814 78.5137 56.3307 78.4132 56.2901C78.3126 56.2496 77.9869 56.0199 77.8521 56.0732C73.5651 57.7229 68.8812 57.7583 64.4995 59.2491C62.5094 58.6358 60.4777 59.022 58.4446 59.3265C56.2283 59.7167 53.97 59.8342 51.7177 59.6767C50.9175 59.597 50.4279 59.0271 49.583 59.127L49.1606 59.8336C47.3849 60.1314 45.8476 58.7258 44.3503 58.9618C43.4712 58.1705 43.4746 57.369 43.187 56.709C43.2331 56.611 43.2813 56.5191 43.3194 56.417C45.8403 50.4583 46.8082 51.7388 51.6149 50.8812C52.5475 51.654 53.3344 50.4591 54.2426 50.6589C54.9729 50.8448 55.8883 51.22 56.5291 50.9921C57.4577 50.6718 58.2876 51.2817 59.2088 50.8818C60.0228 50.519 60.7867 51.9998 61.7864 51.3061C63.4135 52.1609 64.8396 50.212 66.4585 51.0627C68.3124 50.1223 70.2346 50.8479 71.9604 51.3129C73.6861 51.7779 75.5104 51.4086 77.2003 52.098C77.4961 52.2217 77.9729 51.8658 78.2646 51.7651C79.5824 52.4187 80.7752 52.9992 82.0282 53.5999Z" fill="#FDC151"/>
<path d="M41.6329 49.4614C40.3475 48.9736 39.0202 50.1563 37.6932 49.213L35.577 46.0134C35.6819 44.3483 36.8774 43.0154 38.0368 42.176C41.9858 39.3062 45.0244 35.2563 49.4304 33.1183L49.8677 31.6941C52.9012 29.2229 55.6809 26.6706 58.8848 24.719C59.4716 24.3632 59.513 23.6733 60.0269 23.3299C60.5409 22.9866 60.842 22.616 61.5661 23.0893C60.298 26.3895 58.9584 29.7289 57.498 33.4337C55.8468 35.1027 54.3433 36.9185 53.0057 38.8595L53.4294 39.5982C51.5244 40.4144 50.5868 42.178 49.4417 43.7179C48.5695 44.9345 47.6867 45.9712 46.0597 46.4717C44.4326 46.9721 43.2656 48.3235 41.6329 49.4614Z" fill="#FDC151"/>
<path d="M37.1816 14.5237L36.2239 16.054C36.6794 17.7795 36.7041 19.5915 36.296 21.3386C36.1269 22.255 34.5816 22.4962 35.3514 23.8769C35.6704 24.4472 35.0304 25.7248 34.7797 26.6611C34.5658 27.6478 34.2196 28.6042 33.7501 29.5053C33.464 29.9965 33.8639 30.8712 33.951 31.5824L32.4043 34.0537C30.1545 34.4085 30.0438 37.2812 27.8888 37.8333C27.4564 36.5257 26.9839 31.8639 27.1897 30.7441L26.2645 29.9263C26.7462 27.8641 27.253 25.7957 27.7242 23.6907C28.1242 21.5907 28.6508 19.5141 29.3012 17.4718C30.0745 15.3773 31.4717 13.4935 32.1888 11.3868C32.9059 9.28005 34.876 7.94335 36.0391 6C36.0172 7.45387 36.2897 8.89416 36.8408 10.238C37.3557 11.7199 36.4058 13.2547 37.1816 14.5237Z" fill="#FDC151"/>
<path d="M16.9863 27.0739L14.3292 26.7127C13.314 24.5527 12.4404 22.4286 12.4168 20.0976C12.4372 18.6963 12.176 17.2978 11.6488 15.9862C10.9812 14.1252 10.5416 12.1947 10.3398 10.238C10.1054 8.48076 9.85974 6.60837 9.65398 4.8365C9.51599 3.2835 9.81517 1.73416 10.5172 0.366237C11.4775 0.327787 11.5652 1.18454 12.0499 1.50918C12.8451 2.04108 12.4151 3.31927 13.7022 3.69019C14.735 3.97457 14.281 5.49531 14.9722 6.39152C15.4643 7.0081 15.3598 8.24989 15.6902 9.21899C16.3802 11.2745 16.9243 13.43 17.6801 15.4165C18.5023 17.5568 18.4196 19.7244 18.9337 21.8624C19.3432 23.6371 18.0127 25.2205 16.9863 27.0739Z" fill="#FDC151"/>
</svg>
