<svg width="56" height="56" viewBox="0 0 56 56" fill="none" xmlns="http://www.w3.org/2000/svg">
<g clip-path="url(#clip0_430_1738)">
<path d="M10.6937 40.4157C8.29039 37.8631 7.00006 35.0001 7.00006 30.3591C7.00006 22.1924 12.7331 14.8727 21.0701 11.2537L23.1537 14.4691C15.3721 18.6784 13.8507 24.1407 13.2441 27.5847C14.4971 26.9361 16.1374 26.7097 17.7451 26.8591C21.9544 27.2487 25.2724 30.7044 25.2724 35.0001C25.2724 37.166 24.412 39.2432 22.8804 40.7748C21.3489 42.3063 19.2717 43.1667 17.1057 43.1667C14.6021 43.1667 12.2081 42.0234 10.6937 40.4157ZM34.0271 40.4157C31.6237 37.8631 30.3334 35.0001 30.3334 30.3591C30.3334 22.1924 36.0664 14.8727 44.4034 11.2537L46.4871 14.4691C38.7054 18.6784 37.1841 24.1407 36.5774 27.5847C37.8304 26.9361 39.4707 26.7097 41.0784 26.8591C45.2877 27.2487 48.6034 30.7044 48.6034 35.0001C48.6034 37.166 47.743 39.2432 46.2114 40.7748C44.6799 42.3063 42.6027 43.1667 40.4367 43.1667C37.9331 43.1667 35.5391 42.0234 34.0247 40.4157H34.0271Z" fill="#6D8434"/>
</g>
<defs>
<clipPath id="clip0_430_1738">
<rect width="56" height="56" fill="white" transform="matrix(-1 0 0 -1 56 56)"/>
</clipPath>
</defs>
</svg>
